<?xml version="1.0" encoding="UTF-8"?>
<svg id="Layer_1" data-name="Layer 1" xmlns="http://www.w3.org/2000/svg" viewBox="0 0 382.47 440.76">
  <defs>
    <style>
      .cls-1 {
        fill: #000;
      }
    </style>
  </defs>
  <path class="cls-1" d="m382.43,220.32c0,35.91-.02,71.83.05,107.74,0,1.99-.54,3.11-2.32,4.14-62.3,35.93-124.56,71.92-186.8,107.95-1.52.88-2.56.79-4.03-.06-62.34-36.03-124.71-72.02-187.1-107.96C.54,331.16,0,330.11,0,328.2c.05-71.92.05-143.83,0-215.75,0-1.76.45-2.79,2.08-3.73C64.56,72.74,127,36.7,189.42.64c1.37-.79,2.37-.88,3.8-.05,62.4,36.11,124.81,72.18,187.27,108.2,1.69.97,1.97,2.1,1.97,3.8-.03,35.91-.03,71.83-.03,107.74Zm-352.17,0c0,29.77.03,59.54-.06,89.31,0,2.57.66,4,3.01,5.35,52.03,29.88,104,59.85,155.94,89.87,1.68.97,2.82.91,4.47-.04,52-30.09,104.03-60.14,156.1-90.12,1.97-1.13,2.54-2.37,2.54-4.55-.06-59.8-.06-119.61.02-179.41,0-2.47-.86-3.67-2.9-4.85-51.91-29.9-103.8-59.85-155.65-89.85-1.76-1.02-2.95-1.02-4.71,0-52.02,30.06-104.08,60.06-156.18,89.99-2.08,1.19-2.64,2.48-2.64,4.73.07,29.86.05,59.72.05,89.57Z"/>
</svg>