<svg xmlns="http://www.w3.org/2000/svg" viewBox="0 0 59.46 58.22">
  <defs>
    <style>
      .cls-1 {
        fill: #231f20;
      }
    </style>
  </defs>
  <g id="Layer_2" data-name="Layer 2">
    <g id="NEW">
      <g>
        <path class="cls-1" d="M59.46,58.22V27.6H35.3v6.59h0A24.15,24.15,0,0,0,59.46,58.22Z"/>
        <path class="cls-1" d="M34.4,5.9l1.17,0a18.36,18.36,0,0,1,17,12.33H17.91l.35.26V51.33A18.3,18.3,0,0,1,5.91,34.16V5.9H34.4M35.65,0H0V34.19H0a24.15,24.15,0,0,0,24.14,24h0V24.15H59.46A24.14,24.14,0,0,0,35.65,0V0Z"/>
      </g>
    </g>
  </g>
</svg>
